# xmcd
#
# Track frame offsets: 
#        150
#        13827
#        36738
#        55707
#        71598
#        90081
#        106809
#        133581
#        151866
#        172598
#        183899
#        200573
#        216572
#        235697
#        255020
#        275934
#        289733
#        305867
#        325103
#
# Disc length: 4524 seconds
#
# Revision: 0
# Processed by: cddbd v1.5.2PL0 Copyright (c) Steve Scherf et al.
# Submitted via: ExactAudioCopy v1.0b4
#
DISCID=0911aa13
DTITLE=Flauta Inka - Como Vai Você - Tributo Ao Brasil MPB
DYEAR=2006
DGENRE=Instrumental
TTITLE0=Catedral
TTITLE1=Quien de Nois Dois
TTITLE2=Espanhola
TTITLE3=Corazon de Estudante
TTITLE4=Como Vai Você
TTITLE5=Amada Amante
TTITLE6=Nossa Senhora
TTITLE7=Romaria
TTITLE8=Ave Maria
TTITLE9=Garota de Ipanema
TTITLE10=Maluco Beleza
TTITLE11=Medo da Chuva
TTITLE12=Menina Veneno
TTITLE13=Estou Apaixonado
TTITLE14=Eu Te Amo
TTITLE15=Aline
TTITLE16=Índia
TTITLE17=Rumo a Goiana
TTITLE18=Tico-Tico no Fubá
EXTD=
EXTT0=
EXTT1=
EXTT2=
EXTT3=
EXTT4=
EXTT5=
EXTT6=
EXTT7=
EXTT8=
EXTT9=
EXTT10=
EXTT11=
EXTT12=
EXTT13=
EXTT14=
EXTT15=
EXTT16=
EXTT17=
EXTT18=
PLAYORDER=
